# xmcd
#
# Track frame offsets:
#	150
#	13338
#	26162
#	39463
#	52515
#	67217
#	81712
#	94777
#	107858
#	120612
#	133820
#	147373
#	160986
#	174141
#	187066
#	200457
#	214848
#	227570
#	242909
#	257061
#
# Disc length: 3625 seconds
#
# Revision: 0
# Processed by: cddbd v1.5.2PL0 Copyright (c) Steve Scherf et al.
# Submitted via: dBpowerAMP V4.0
#
DISCID=280e2714
DTITLE=Blind Willie McTell - Mr. McTell Got The Blues
DYEAR=1900
DGENRE=Blues
TTITLE0=Warm It Up To Me
TTITLE1=It's A Good Little Thing
TTITLE2=Lord Have Mercy If You Please
TTITLE3=Don't You See How This World Made A Change
TTITLE4=Savannah Mama
TTITLE5=Broke Down Engine
TTITLE6=My Baby's Gone
TTITLE7=Love-Makin' Mama
TTITLE8=Death Room Blues
TTITLE9=Lord, Send Me An Angel
TTITLE10=B And O Blues No. 2
TTITLE11=Weary Hearted Blues
TTITLE12=Southern Can Mama
TTITLE13=East St. Loius Blues (Fare You Well)
TTITLE14=We Got To Meet Death One Day
TTITLE15=I Got Religion, I'm So Glad
TTITLE16=Bell Street Blues
TTITLE17=Lay Some Flowers On My Grave
TTITLE18=Cold Winter Day
TTITLE19=Cooling Board Blues
EXTD=
EXTT0=
EXTT1=
EXTT2=
EXTT3=
EXTT4=
EXTT5=
EXTT6=
EXTT7=
EXTT8=
EXTT9=
EXTT10=
EXTT11=
EXTT12=
EXTT13=
EXTT14=
EXTT15=
EXTT16=
EXTT17=
EXTT18=
EXTT19=
PLAYORDER=
